<?xml version="1.0" encoding="UTF-8" standalone="no"?>
<!DOCTYPE svg PUBLIC "-//W3C//DTD SVG 1.1//EN" "http://www.w3.org/Graphics/SVG/1.1/DTD/svg11.dtd">
<svg width="100%" height="100%" viewBox="0 0 636 711" version="1.1" xmlns="http://www.w3.org/2000/svg"
    xmlns:xlink="http://www.w3.org/1999/xlink" xml:space="preserve" xmlns:serif="http://www.serif.com/"
    style="fill-rule:evenodd;clip-rule:evenodd;stroke-linecap:round;stroke-linejoin:round;stroke-miterlimit:1.5;">
    <g id="Face" transform="matrix(2.12245,0,0,2.12245,-1964.14,-746.576)">
        <g>
            <g id="Face1" serif:id="Face">
                <g transform="matrix(0.821644,-0.0430173,0.0498364,0.951892,147.014,-134.85)">
                    <path
                        d="M1217.49,750.302L1217.49,842.181C1217.95,890.391 1148.11,919.451 1114.1,912.788C1080.74,912.788 1053.66,881.15 1053.66,842.181L1053.66,750.302C1053.66,711.333 1080.74,679.696 1114.1,679.696L1157.05,679.696C1190.41,679.696 1217.49,711.333 1217.49,750.302Z" />
                </g>
                <g transform="matrix(1.00702,0,0,1.00702,146.085,-103.407)">
                    <path
                        d="M843.58,515.134C843.58,515.134 808.981,735.009 900.531,748.186C1015.97,764.802 1037.72,690.407 1037.72,690.407L975.345,516.848L843.58,515.134Z" />
                </g>
                <g transform="matrix(0.894341,0.591855,-0.616842,0.932099,444.621,-661.133)">
                    <ellipse cx="1179.26" cy="521.831" rx="39.963" ry="50.713" />
                </g>
                <g transform="matrix(0.815823,-0.0427125,0.0494833,0.945148,153.77,-130.36)">
                    <path
                        d="M1217.49,750.302L1217.49,842.181C1217.95,890.391 1148.11,919.451 1114.1,912.788C1080.74,912.788 1053.66,881.15 1053.66,842.181L1053.66,750.302C1053.66,711.333 1080.74,679.696 1114.1,679.696L1157.05,679.696C1190.41,679.696 1217.49,711.333 1217.49,750.302Z"
                        style="fill:white;" />
                </g>
                <g transform="matrix(1,0,0,1,152.814,-98.8512)">
                    <path
                        d="M843.58,515.134C843.58,515.134 808.981,735.009 900.531,748.186C1015.97,764.802 1037.72,690.407 1037.72,690.407L975.345,516.848L843.58,515.134Z"
                        style="fill:white;" />
                </g>
                <g transform="matrix(1,0,0,1,14.915,4.86058)">
                    <ellipse cx="1014.39" cy="514.569" rx="3.361" ry="3.786"
                        style="stroke:black;stroke-width:3.98px;" />
                </g>
                <g transform="matrix(1,0,0,1,83.0392,8.64628)">
                    <ellipse cx="1014.39" cy="514.569" rx="3.361" ry="3.786"
                        style="stroke:black;stroke-width:3.98px;" />
                </g>
                <path
                    d="M1063.91,527.001C1063.91,527.001 1057.85,554.879 1056,554.859C1054.16,554.839 1036.12,557.443 1051.23,571.687"
                    style="fill:none;stroke:black;stroke-width:3.98px;" />
                <path
                    d="M1038.85,444.402C1038.85,444.402 954.489,516.882 932.91,468.782C911.331,420.682 937.989,343.86 991.347,352.406C1044.7,360.952 1036.85,386.456 1036.85,386.456C1036.85,386.456 1041.77,349.549 1081.08,361.529C1103.41,368.336 1104.89,391.55 1104.89,391.55C1104.89,391.55 1117.17,368.509 1138.46,376.948C1159.75,385.387 1154.66,403.986 1154.66,403.986C1154.66,403.986 1179.98,417.767 1203.06,433.453C1230.65,452.214 1214.87,540.69 1206.18,585.949C1201.65,609.571 1188.24,615.265 1188.24,615.265C1188.24,615.265 1150.66,493.181 1136.27,464.62C1130.24,452.67 1126.98,444.771 1101.88,443.902C1076.78,443.034 1064.57,466.988 1038.85,444.402Z" />
                <g transform="matrix(0.894341,0.591855,-0.616842,0.932099,443.682,-661.133)">
                    <ellipse cx="1179.26" cy="521.831" rx="39.963" ry="50.713" style="fill:white;" />
                </g>
                <g transform="matrix(1,0,0,1,2.92798,-13.4877)">
                    <path d="M1069.08,616.651C1069.08,616.651 1095.56,624.147 1100.79,594.803"
                        style="fill:none;stroke:black;stroke-width:3.98px;" />
                </g>
                <g transform="matrix(0.742171,-0.29201,0.291717,0.741424,151.895,474.771)">
                    <path
                        d="M1200.02,503.793C1200.02,503.793 1176.28,493.332 1179.39,523.215C1182.5,553.099 1157.77,540.385 1157.77,540.385"
                        style="fill:none;stroke:black;stroke-width:3.57px;" />
                </g>
                <g transform="matrix(0.725909,-0.0395767,0.0300573,0.551305,261,264.284)">
                    <path
                        d="M1034.09,481.255C1047.21,481.121 1044.93,492.448 1040.75,494.132C1034.75,496.548 1023.02,490.38 1002.4,495.322C992.472,497.7 1027.7,481.32 1034.09,481.255Z"
                        style="stroke:black;stroke-width:4.41px;" />
                </g>
                <g transform="matrix(-0.714566,-0.133816,-0.101629,0.54269,1890.94,369.137)">
                    <path
                        d="M1034.09,481.255C1047.21,481.121 1044.93,492.448 1040.75,494.132C1034.75,496.548 1023.02,490.38 1002.4,495.322C992.472,497.7 1027.7,481.32 1034.09,481.255Z"
                        style="stroke:black;stroke-width:4.41px;" />
                </g>
            </g>
        </g>
    </g>
</svg>